<svg xmlns="http://www.w3.org/2000/svg" xmlns:xlink="http://www.w3.org/1999/xlink" width="150" height="150" viewBox="0 0 150 150">
  <defs>
    <linearGradient id="linear-gradient" x1="0.907" y1="0.044" x2="0.5" y2="1" gradientUnits="objectBoundingBox">
      <stop offset="0" stop-color="#bf4797"/>
      <stop offset="1" stop-color="#2f96b4"/>
    </linearGradient>
    <clipPath id="clip-AppIcon-Launcher-windows-150">
      <rect width="150" height="150"/>
    </clipPath>
  </defs>
  <g id="AppIcon-Launcher-windows-150" clip-path="url(#clip-AppIcon-Launcher-windows-150)">
    <rect id="Rechteck_518" width="150" height="150" rx="75" fill="#202424"/>
    <path id="Pfad_41" d="M60.014.024,59.943.016c-.056,0-.108-.016-.162-.016-.075,0-.144.019-.218.022a4.935,4.935,0,0,0-3.22,1.162L32.382,21.532,8.423,1.185A4.938,4.938,0,0,0,5.2.022C5.128.022,5.059,0,4.984,0c-.056,0-.108.014-.162.016L4.753.024A4.97,4.97,0,0,0,0,4.983V61.111a2.677,2.677,0,0,0,.068.642c1.037,15.374,15.1,27.6,32.266,27.619v.021h.024c.406,0,.8-.031,1.2-.047.244-.008.488-.015.731-.029s.466-.028.7-.048c16.636-1.218,29.769-13.9,29.769-29.337V4.983A4.97,4.97,0,0,0,60.014.024M32.837,54.973c-10.329-1.038-14.892-4.3-14.763-6.883.132-2.636,4.179-6.268,10.534-7.338.482-.071.961-.149,1.454-.193l.048,0q1.12-.1,2.273-.1c12.36,0,22.416,8.738,22.416,19.478a17.028,17.028,0,0,1-.525,4.154c-5.116-6.845-17.046-8.668-21.437-9.11ZM9.964,38.717V15.566L27.879,30.781A33.652,33.652,0,0,0,9.964,38.717m26.918-7.936L54.8,15.566v23.15a33.648,33.648,0,0,0-17.916-7.935M9.964,59.932a16.969,16.969,0,0,1,.583-4.346c2.818,3.979,8.789,8.045,21.293,9.3,9.917,1,14.977,4.1,14.848,6.647-.139,2.742-4.558,6.7-11.235,7.669-.071.008-.141.02-.211.029-.269.036-.548.06-.824.087-.673.053-1.35.09-2.038.09-12.36,0-22.417-8.735-22.417-19.478Z" transform="translate(42.48 30.176)" fill="url(#linear-gradient)"/>
  </g>
</svg>
